<?xml version="1.0" standalone="no"?><!DOCTYPE svg PUBLIC "-//W3C//DTD SVG 1.1//EN" "http://www.w3.org/Graphics/SVG/1.1/DTD/svg11.dtd"><svg t="1764015850502" class="icon" viewBox="0 0 1024 1024" version="1.1" xmlns="http://www.w3.org/2000/svg" p-id="27247" xmlns:xlink="http://www.w3.org/1999/xlink" width="200" height="200"><path d="M513.390617 506.051951m-505.679012 0a505.679012 505.679012 0 1 0 1011.358025 0 505.679012 505.679012 0 1 0-1011.358025 0Z" fill="#FFCD56" p-id="27248"></path><path d="M937.743802 230.842469c13.69758 17.490173 20.448395 38.178765 17.483852 59.227654-6.934123 49.34163-64.581531 82.033778-128.758518 73.013729-45.346765-6.371556-81.818864-31.857778-96.875457-63.671309C658.394074 179.705679 485.805827 116.887704 304.57679 155.414123 200.438519 177.543901 112.51358 229.091556 53.456593 295.17116 133.353877 121.078519 309.216395 0.164346 513.308444 0.164346c175.951012 0 330.916346 89.85916 421.496099 226.190222zM87.962864 781.514272c-13.69758-17.496494-20.448395-38.178765-17.490173-59.227655 6.934123-49.347951 64.587852-82.040099 128.771161-73.020049 45.340444 6.371556 81.812543 31.857778 96.869136 63.67763 71.193284 119.706864 243.781531 182.518519 425.010568 143.992098 104.138272-22.123457 192.06321-73.671111 251.126518-139.757037-79.897284 174.098963-255.759802 295.013136-459.858173 295.013136-175.951012 0-330.910025-89.85916-421.496099-226.183901z" fill="#18CC90" opacity=".75" p-id="27249"></path><path d="M700.239012 535.008395a37.963852 37.963852 0 0 1-37.925926 37.938568l-89.878123-0.006321v89.884444c0 20.947753-16.940247 37.925926-37.938568 37.925926H486.716049a37.963852 37.963852 0 0 1-37.938568-37.925926l0.006321-89.884444H358.905679c-20.947753 0-37.925926-16.927605-37.925926-37.932247v-47.774025a37.963852 37.963852 0 0 1 37.925926-37.938568h89.884444V359.417679c0-20.947753 16.927605-37.925926 37.932247-37.925926h47.774025a37.963852 37.963852 0 0 1 37.938568 37.925926V449.295802H662.313086c20.947753 0 37.925926 16.940247 37.925926 37.938568v47.774025z" fill="#18CC90" p-id="27250"></path></svg>