<?xml version="1.0" standalone="no"?><!DOCTYPE svg PUBLIC "-//W3C//DTD SVG 1.1//EN" "http://www.w3.org/Graphics/SVG/1.1/DTD/svg11.dtd"><svg t="1764015689310" class="icon" viewBox="0 0 1024 1024" version="1.1" xmlns="http://www.w3.org/2000/svg" p-id="18428" xmlns:xlink="http://www.w3.org/1999/xlink" width="200" height="200"><path d="M756.266667 189.866667c-1.066667 18.666667-16.533333 33.6-35.2 33.6-19.733333 0-35.733333-16-35.733334-35.733334 0-16 10.666667-29.866667 25.066667-34.133333-6.933333-2.133333-13.866667-3.2-20.8-3.2-42.133333 0-76.8 34.133333-76.8 76.8 0 42.133333 34.133333 76.8 76.8 76.8 42.133333 0 76.8-34.133333 76.8-76.8 0-13.333333-3.733333-26.133333-10.133333-37.333333z" p-id="18429" fill="#ff6600"></path><path d="M903.466667 464c-6.933333-47.466667-21.866667-92.266667-44.266667-132.266667 1.066667-1.6 1.6-2.666667 2.133333-4.266666 17.6-29.333333 27.733333-64 27.733334-100.8 0-109.866667-89.066667-198.933333-198.933334-198.933334a197.866667 197.866667 0 0 0-171.2 98.133334c-34.666667-58.666667-98.133333-98.133333-171.2-98.133334-109.866667 0-198.933333 89.066667-198.933333 198.933334 0 36.8 10.133333 71.466667 27.733333 101.333333 0.533333 0.533333 0.533333 1.066667 1.066667 2.133333-30.933333 56-49.066667 120.533333-49.066667 189.333334 0 144 78.4 269.866667 194.666667 337.066666-37.333333 17.066667-62.4 38.933333-62.4 38.933334-12.266667 10.666667-19.733333 26.133333-19.733333 43.2 0 26.666667 18.666667 49.6 43.733333 55.466666 0 0 22.4 5.333333 33.066667 6.933334 29.866667 5.866667 60.8 8.533333 92.266666 8.533333 259.2 0 472-197.866667 496.533334-450.666667 4.8-41.6-1.066667-79.466667-3.2-94.933333zM204.266667 227.733333c0-78.933333 64-142.933333 142.933333-142.933333s142.933333 64 142.933333 142.933333-64 142.933333-142.933333 142.933334c-78.933333 0.533333-142.933333-64-142.933333-142.933334z m301.866666 336.533334c-56 0-104-34.133333-123.733333-83.2 0 0-1.066667-3.733333-1.066667-4.8 0-8 6.4-14.4 13.866667-14.4h2.666667c17.066667 2.666667 35.2 4.8 52.8 4.8 62.4 0 120.533333-17.066667 169.6-48 0 0 3.2-1.6 5.333333-1.6 6.933333 0 12.8 4.8 13.866667 11.733333v3.733333c-0.533333 73.066667-59.733333 131.733333-133.333334 131.733334z m183.466667-193.6c-78.933333 0-142.933333-64-142.933333-142.933334s64-142.933333 142.933333-142.933333 142.933333 64 142.933333 142.933333c0.533333 78.933333-64 142.933333-142.933333 142.933334z" p-id="18430" fill="#ff6600"></path><path d="M413.866667 188.266667c-1.066667 18.666667-16.533333 33.6-35.2 33.6-19.733333 0-35.733333-16-35.733334-35.733334 0-16 10.666667-29.866667 25.066667-34.133333-6.933333-2.133333-13.866667-3.2-20.8-3.2-42.133333 0-76.8 34.133333-76.8 76.8 0 42.133333 34.133333 76.8 76.8 76.8s76.8-34.133333 76.8-76.8c0-13.333333-3.733333-26.133333-10.133333-37.333333z" p-id="18431" fill="#ff6600"></path></svg>