<?xml version="1.0" standalone="no"?><!DOCTYPE svg PUBLIC "-//W3C//DTD SVG 1.1//EN" "http://www.w3.org/Graphics/SVG/1.1/DTD/svg11.dtd"><svg t="1764015773830" class="icon" viewBox="0 0 1024 1024" version="1.1" xmlns="http://www.w3.org/2000/svg" p-id="22887" xmlns:xlink="http://www.w3.org/1999/xlink" width="200" height="200"><path d="M627.2 430.933333c-46.933333 0-76.8 21.333333-76.8 55.466667s29.866667 55.466667 76.8 55.466667 76.8-21.333333 76.8-55.466667c-4.266667-34.133333-29.866667-55.466667-76.8-55.466667zM857.6 430.933333c-46.933333 0-76.8 21.333333-76.8 55.466667s29.866667 55.466667 76.8 55.466667 76.8-21.333333 76.8-55.466667c-4.266667-34.133333-34.133333-55.466667-76.8-55.466667z" p-id="22888" fill="#2c2c2c"></path><path d="M0 256v512c0 140.8 115.2 256 256 256h512c140.8 0 256-115.2 256-256V256c0-140.8-115.2-256-256-256H256C115.2 0 0 115.2 0 256z m170.666667 311.466667c-64 0-106.666667-34.133333-106.666667-81.066667s42.666667-81.066667 106.666667-81.066667 106.666667 34.133333 106.666666 81.066667-46.933333 81.066667-106.666666 81.066667z m230.4 0c-34.133333 0-59.733333-8.533333-76.8-21.333334v72.533334h-34.133334V413.866667h34.133334v12.8c17.066667-12.8 42.666667-21.333333 72.533333-21.333334h4.266667c64 0 106.666667 34.133333 106.666666 81.066667-4.266667 46.933333-46.933333 81.066667-106.666666 81.066667z m226.133333 0c-34.133333 0-59.733333-8.533333-76.8-21.333334v72.533334h-34.133333V413.866667h34.133333v12.8c17.066667-12.8 42.666667-21.333333 72.533333-21.333334h4.266667c64 0 106.666667 34.133333 106.666667 81.066667s-42.666667 81.066667-106.666667 81.066667z m230.4 0c-64 0-106.666667-34.133333-106.666667-81.066667s42.666667-81.066667 106.666667-81.066667h4.266667c64 0 106.666667 34.133333 106.666666 81.066667s-51.2 81.066667-110.933333 81.066667z" p-id="22889" fill="#2c2c2c"></path><path d="M396.8 430.933333c-46.933333 0-76.8 21.333333-76.8 55.466667s29.866667 55.466667 76.8 55.466667 76.8-21.333333 76.8-55.466667-29.866667-55.466667-76.8-55.466667zM166.4 430.933333c-46.933333 0-76.8 21.333333-76.8 55.466667s29.866667 55.466667 76.8 55.466667 76.8-21.333333 76.8-55.466667-29.866667-55.466667-76.8-55.466667z" p-id="22890" fill="#2c2c2c"></path></svg>