<?xml version="1.0" standalone="no"?><!DOCTYPE svg PUBLIC "-//W3C//DTD SVG 1.1//EN" "http://www.w3.org/Graphics/SVG/1.1/DTD/svg11.dtd"><svg t="1764015294874" class="icon" viewBox="0 0 1024 1024" version="1.1" xmlns="http://www.w3.org/2000/svg" p-id="6353" xmlns:xlink="http://www.w3.org/1999/xlink" width="200" height="200"><path d="M865.52381 172.924162c-84.430335-80.366843-205.432099-89.396825-353.975309-89.396825s-269.996473 9.029982-353.975309 89.848324C73.142857 254.194004 64.564374 370.229277 64.564374 512.451499s8.578483 258.708995 93.008818 339.075838c84.430335 80.818342 205.883598 88.945326 353.975309 88.945326 148.54321 0 269.996473-8.126984 353.975309-88.945326 84.430335-80.818342 93.008818-197.305115 93.008818-339.075838 0.451499-142.222222-8.126984-258.708995-93.008818-339.527337z" fill="#FF6900" p-id="6354"></path><path d="M771.160494 349.008818c3.160494 0 5.417989 2.257496 5.417989 5.41799v316.952381c0 2.708995-2.708995 5.417989-5.417989 5.417989h-72.239859c-3.160494 0-5.417989-2.257496-5.417989-5.417989V354.426808c0-2.708995 2.708995-5.417989 5.417989-5.41799h72.239859z m-314.243386 0c54.631393 0 111.971781 2.257496 139.964726 29.347443 27.541446 26.638448 30.70194 79.463845 30.70194 130.934744v162.088184c0 2.708995-2.708995 5.417989-5.417989 5.417989h-72.239859c-3.160494 0-5.417989-2.257496-5.417989-5.417989v-164.797178c0-28.895944-1.805996-58.243386-17.156967-73.142858-13.093474-12.641975-37.925926-15.802469-64.112875-16.253968H331.851852c-3.160494 0-5.417989 2.257496-5.41799 5.41799v248.776014c0 2.708995-2.708995 5.417989-5.869488 5.417989H247.873016c-3.160494 0-5.417989-2.257496-5.41799-5.417989V354.426808c0-2.708995 2.708995-5.417989 5.41799-5.41799h209.044092z m16.253968 125.968254c3.160494 0 5.417989 2.257496 5.417989 5.41799v190.984127c0 2.708995-2.708995 5.417989-5.417989 5.417989H396.867725c-3.160494 0-5.417989-2.257496-5.41799-5.417989v-190.984127c0-2.708995 2.708995-5.417989 5.41799-5.41799h76.303351z" fill="#FFFFFF" p-id="6355"></path></svg>