<?xml version="1.0" standalone="no"?><!DOCTYPE svg PUBLIC "-//W3C//DTD SVG 1.1//EN" "http://www.w3.org/Graphics/SVG/1.1/DTD/svg11.dtd"><svg t="1764015865911" class="icon" viewBox="0 0 1024 1024" version="1.1" xmlns="http://www.w3.org/2000/svg" p-id="28246" xmlns:xlink="http://www.w3.org/1999/xlink" width="200" height="200"><path d="M709.1584 7.6416c169.664 0 307.2 137.536 307.2 307.2v394.3168c0 169.664-137.536 307.2-307.2 307.2H314.8416c-169.664 0-307.2-137.536-307.2-307.2V314.8416c0-169.664 137.536-307.2 307.2-307.2h394.3168zM550.4 435.648h-25.6v153.6h25.6v-153.6z m-281.6 0H115.2a25.6 25.6 0 0 0-25.6 25.6h1.1776v128h25.6v-128h60.224v128h25.6v-128h68.3904v128h25.6v-128H294.4l-0.064-1.92A25.6 25.6 0 0 0 268.8 435.6608z m463.2448-0.896h-153.6v25.6h109.9008l-102.8224 102.8224h-7.0784v7.0784l-0.4352 0.4352 0.4352 0.4352V588.8h153.6v-25.6h-110.3232l102.8224-102.8352h7.5008v-25.6z m-235.2896 0h-128l-1.92 0.0768a25.6 25.6 0 0 0-23.68 25.5232v102.8224a25.6 25.6 0 0 0 25.6 25.6h128v-25.6h-128v-34.432h128v-25.6h-128v-42.7904h128v-25.6z m286.4896 0h-25.6v128.4224l0.0768 1.92a25.6 25.6 0 0 0 25.5232 23.68h102.4A25.6 25.6 0 0 0 907.8144 576h3.4304V434.7392h-25.6v128.4224h-102.4V434.752z" fill="#1677FF" p-id="28247"></path></svg>