<svg t="1764020098154" class="icon" viewBox="0 0 1024 1024" version="1.1" xmlns="http://www.w3.org/2000/svg" p-id="32118" width="200" height="200"><path d="M735.781463 64.936585c123.591305 0 223.781463 100.190158 223.781464 223.781464v447.562927c0 123.591305-100.190158 223.781463-223.781464 223.781463H288.218537C164.627231 960.062439 64.437073 859.872281 64.437073 736.280976V288.718049C64.437073 165.126743 164.627231 64.936585 288.218537 64.936585h447.562926zM471.170872 470.201819h-21.942572c-5.09902 0-7.416757 3.87022-4.171925 8.668534l75.09966 112.689951c11.588683 16.873522 20.242232 23.83872 39.40352 23.83872s27.660987-6.811348 39.404519-23.83872l75.099661-112.689951c3.244831-4.798314 0.927095-8.668535-4.171926-8.668534h-22.252269c-9.425795 0-11.279984 1.548488-14.988363 6.966197-3.709378 5.26286-66.44711 100.152195-66.447111 100.152195-2.008039 2.940129-4.171926 4.02407-6.798361 4.02407-2.627434 0-4.790322-1.23879-6.79936-4.025069 0 0-62.892581-94.888336-66.446111-100.152195-3.554529-5.261861-5.563567-6.965198-14.989362-6.965198z m356.646712-5.262861h-67.837752c-70.463188 0-76.799001 57.583766-76.799001 75.230533 0 17.645768 6.335813 75.229534 76.799001 75.229533h67.837752C898.280773 615.399024 904.616585 557.815259 904.616585 540.169491c0-17.646767-6.335813-75.230533-76.799001-75.230533z m-680.687266 5.262861h-21.943571c-5.717417 0-7.416757 3.87022-4.171926 8.668534 0.227778 0.335672 0.789229 1.176851 1.639399 2.450607l1.247782 1.871173c13.981346 20.976515 72.057631 108.368172 72.057631 108.368171C207.549315 608.433826 216.202864 615.399024 235.210302 615.399024c19.161288 0 27.660987-6.811348 39.249671-23.83872l74.94581-112.689951c3.244831-4.798314 1.390642-8.668535-4.172924-8.668534h-21.632875c-9.426794 0-11.280983 1.548488-14.989362 6.966197-3.554529 5.26286-66.446111 100.152195-66.446111 100.152195-2.008039 2.940129-4.171926 4.02407-6.79936 4.02407s-4.790322-1.23879-6.79936-4.025069c0 0-62.737733-94.888336-66.445112-100.152195-3.554529-5.261861-5.564566-6.965198-14.989362-6.965198z m258.521538 0h-16.070307c-6.490661 0-9.117097 2.47758-9.117096 9.133081v126.776195c0 6.501651 2.627434 9.133081 9.117096 9.133081h16.070307c6.490661 0 9.117097-2.47758 9.117096-9.133081v-126.776195c0-6.501651-2.627434-9.133081-9.117096-9.133081z m420.619239 29.10158c38.013877 0 41.259707 31.268464 41.259707 40.866092 0 9.596628-3.39968 40.865093-41.259707 40.865092h-67.527056c-38.012878 0-41.258708-31.268464-41.258708-40.865092 0-9.597627 3.39968-40.866092 41.258708-40.866092h67.528055zM404.724761 413.546146c-5.09902-5.26286-9.270946-5.26286-14.525815 0l-11.125135 11.145116c-5.254868 5.108012-5.254868 9.28793 0 14.550791l11.125135 11.145116c5.10002 5.26286 9.271945 5.26286 14.525815 0l11.126135-11.145116c5.253869-5.108012 5.253869-9.28793 0-14.550791z" fill="#415FFF" p-id="32119"></path></svg>
