<?xml version="1.0" standalone="no"?><!DOCTYPE svg PUBLIC "-//W3C//DTD SVG 1.1//EN" "http://www.w3.org/Graphics/SVG/1.1/DTD/svg11.dtd"><svg t="1764015323576" class="icon" viewBox="0 0 1024 1024" version="1.1" xmlns="http://www.w3.org/2000/svg" p-id="9117" xmlns:xlink="http://www.w3.org/1999/xlink" width="200" height="200"><path d="M529.408 869.888c-32.256 34.816-61.952 59.392-78.336 72.192 24.064 0.512 194.048 4.608 307.2-66.56 51.712-32.256 89.088-78.336 89.088-78.336 19.456-24.064 36.864-46.08 44.032-80.896 3.584-17.408 12.288-57.856-12.288-93.184-2.56-4.096-22.528-31.232-58.88-39.936-28.672-6.656-52.736 1.536-60.928 4.608-86.528 29.184-118.784 160.768-229.888 282.112z" fill="#FF0066" p-id="9118"></path><path d="M850.944 483.328c31.744 35.328 52.736 67.584 63.488 84.992 3.072-23.552 25.088-190.976-33.28-310.784-26.624-54.784-69.12-96.256-69.12-96.256-22.016-21.504-42.496-41.472-75.776-52.224-16.896-5.632-56.32-18.432-94.72 2.048-4.096 2.048-33.792 18.432-46.592 53.76-9.728 27.648-4.096 52.224-2.048 60.928 20.992 88.576 148.992 134.656 258.048 257.536z" fill="#00CC99" p-id="9119"></path><path d="M481.792 159.232c32.256-34.816 62.464-58.88 78.848-71.68-24.064-1.024-194.048-5.632-307.712 64-52.224 32.256-89.6 77.824-89.6 77.824-19.456 24.064-37.376 46.08-45.056 80.384-3.584 17.408-12.8 57.344 11.776 93.184 2.56 4.096 22.016 31.744 58.368 40.448 28.672 7.168 52.736-1.024 60.928-4.096 87.552-28.672 120.832-160.256 232.448-280.064z" fill="#FFCC33" p-id="9120"></path><path d="M167.424 550.912c-32.768-34.304-55.296-65.024-67.072-82.432-2.56 23.552-17.408 192 46.08 309.248 29.184 53.76 72.704 93.696 72.704 93.696 23.04 20.992 44.032 39.936 77.824 49.152 17.408 4.608 56.832 15.872 94.72-6.144 4.096-2.56 32.768-19.968 44.032-55.296 8.704-27.648 2.048-52.224-0.512-60.928-23.552-88.576-153.6-129.536-267.776-247.296z" fill="#0066FF" p-id="9121"></path></svg>